# xmcd
#
# Track frame offsets:
#   150
#   12298
#   25924
#   35537
#   47936
#   59500
#   73599
#   85385
#   96141
#   110519
#   120717
#   131277
#   144262
#   154237
#   164017
#   177389
#   190485
#   201073
#   210965
#   221720
#   235262
#   248581
#   262123
#   272829
#   284470
#
# Disc length: 3937 seconds
#
# Revision: 2
# Processed by: cddbd v1.5.1PL0 Copyright (c) Steve Scherf et al.
# Submitted via: Media_Universe 3.0
#
DISCID=7a0f5f19
DTITLE=Maddox Brothers and Rose 1947-1951 - Les Triomphes De La Country Music Vol.7
DYEAR=2002
DGENRE=Country
TTITLE0=George's Playhouse Boogie
TTITLE1=Midnight Train
TTITLE2=Shimmy Shakin' Daddy
TTITLE3=Careless Driver
TTITLE4=Whoa Sailor
TTITLE5=Milk Cow Blues
TTITLE6=Mean And Wicked Boogie
TTITLE7=Honky-Tonkin
TTITLE8=Philadelphia Lawyer
TTITLE9=Sally Let Your Bangs Hang Down
TTITLE10=Dark As The Dungeon
TTITLE11=Mule Train
TTITLE12=Oklahoma Sweetheart Sally Ann
TTITLE13=I Wish I Was A Single Girl Again
TTITLE14=New Mule Skinner Blues
TTITLE15=I Couldn't Believe It Was True
TTITLE16=You've Been Talking In Your Sleep
TTITLE17=South
TTITLE18=It's Only Human Nature
TTITLE19=Just One Little Kiss
TTITLE20=I Love The Women
TTITLE21=No One Is Sweeter Than You
TTITLE22=Gosh, I Miss You All The Time
TTITLE23=Chill In My Heart
TTITLE24=New Step It Up And Go
EXTD=YEAR: 2002
EXTT0=
EXTT1=
EXTT2=
EXTT3=
EXTT4=
EXTT5=
EXTT6=
EXTT7=
EXTT8=
EXTT9=
EXTT10=
EXTT11=
EXTT12=
EXTT13=
EXTT14=
EXTT15=
EXTT16=
EXTT17=
EXTT18=
EXTT19=
EXTT20=
EXTT21=
EXTT22=
EXTT23=
EXTT24=
PLAYORDER=
